<?xml version="1.0" standalone="no"?><!DOCTYPE svg PUBLIC "-//W3C//DTD SVG 1.1//EN" "http://www.w3.org/Graphics/SVG/1.1/DTD/svg11.dtd"><svg t="1552477410527" class="icon" style="" viewBox="0 0 2570 1024" version="1.1" xmlns="http://www.w3.org/2000/svg" p-id="3690" xmlns:xlink="http://www.w3.org/1999/xlink" width="32.626953125" height="13"><defs><style type="text/css"></style></defs><path d="M190.171429 794.122449V8.359184h-188.081633v810.840816c0 104.489796 83.591837 188.081633 188.081633 188.081633h482.742857v-188.081633h-459.755102c-10.44898-2.089796-22.987755-12.538776-22.987755-25.077551zM733.518367 8.359184h188.081633v996.832653h-188.081633zM1682.285714 8.359184l-250.77551 777.404081L1180.734694 8.359184l-190.171429 4.179592 326.008164 961.306122c6.269388 18.808163 25.077551 31.346939 43.885714 31.346939h142.106122c20.897959 0 37.616327-12.538776 43.885715-31.346939L1872.457143 12.538776 1682.285714 8.359184zM2566.269388 198.530612V8.359184H2062.628571c-106.579592 0-190.171429 85.681633-190.171428 190.171428v624.84898c0 106.579592 85.681633 190.171429 190.171428 190.171428h503.640817v-190.171428h-453.485715c-27.167347 0-50.155102-22.987755-50.155102-50.155102V248.685714c0-27.167347 22.987755-50.155102 50.155102-50.155102h453.485715z" fill="#f0145a" p-id="3691"></path><path d="M2501.485714 468.114286l-190.171428-108.669388c-29.257143-16.718367-64.783673 4.179592-64.783674 37.616326v219.428572c0 33.436735 35.526531 54.334694 64.783674 37.616326l190.171428-108.669387c29.257143-16.718367 29.257143-60.604082 0-77.322449z" fill="#f0145a" p-id="3692"></path></svg>